<svg width="14" height="3" viewBox="0 0 14 3" fill="none" xmlns="http://www.w3.org/2000/svg">
<path d="M1.29266 2.5C1.00466 2.5 0.758664 2.404 0.554664 2.212C0.362664 2.008 0.266664 1.756 0.266664 1.456C0.266664 1.156 0.362664 0.91 0.554664 0.718C0.758664 0.514 1.00466 0.412 1.29266 0.412C1.58066 0.412 1.82066 0.514 2.01266 0.718C2.20466 0.91 2.30066 1.156 2.30066 1.456C2.30066 1.756 2.20466 2.008 2.01266 2.212C1.83266 2.404 1.59266 2.5 1.29266 2.5ZM7.00555 2.5C6.71755 2.5 6.47155 2.404 6.26755 2.212C6.07555 2.008 5.97955 1.756 5.97955 1.456C5.97955 1.156 6.07555 0.91 6.26755 0.718C6.47155 0.514 6.71755 0.412 7.00555 0.412C7.29355 0.412 7.53355 0.514 7.72555 0.718C7.91755 0.91 8.01355 1.156 8.01355 1.456C8.01355 1.756 7.91755 2.008 7.72555 2.212C7.54555 2.404 7.30555 2.5 7.00555 2.5ZM12.7184 2.5C12.4304 2.5 12.1844 2.404 11.9804 2.212C11.7884 2.008 11.6924 1.756 11.6924 1.456C11.6924 1.156 11.7884 0.91 11.9804 0.718C12.1844 0.514 12.4304 0.412 12.7184 0.412C13.0064 0.412 13.2464 0.514 13.4384 0.718C13.6304 0.91 13.7264 1.156 13.7264 1.456C13.7264 1.756 13.6304 2.008 13.4384 2.212C13.2584 2.404 13.0184 2.5 12.7184 2.5Z" fill="#151411"/>
</svg>
